<svg height="111.5" viewBox="0 0 100 111.5" width="100" xmlns="http://www.w3.org/2000/svg" fill="#6a6a76"><path d="M79.514 33.75c-10.396 0-21.79 5.792-29.514 14.577-7.725-8.785-19.12-14.577-29.514-14.577C10.582 33.75 0 39.53 0 55.75s10.582 22 20.486 22c10.397 0 21.79-5.79 29.514-14.574C57.723 71.96 69.117 77.75 79.512 77.75c9.906 0 20.488-5.78 20.488-22s-10.582-22-20.486-22zm-59.028 35.2c-7.56 0-11.396-4.44-11.396-13.2 0-8.757 3.836-13.2 11.396-13.2 8.36 0 18.07 5.427 24.03 13.2-5.96 7.773-15.666 13.2-24.03 13.2zm59.026 0c-8.36 0-18.07-5.427-24.03-13.2 5.96-7.773 15.67-13.2 24.032-13.2 7.562 0 11.396 4.442 11.396 13.2-.002 8.76-3.836 13.2-11.398 13.2z"/></svg>
