<svg height="96" viewBox="0 0 96 96" width="96" xmlns="http://www.w3.org/2000/svg"><path d="M69.42 48.307c.87-3.115 1.494-5.128 2.193-8.83.742-3.928-2.635-5.887-5.885-5.887h-34.08l.453 5.887s.874 7.502 1.41 11.77c.537 4.27 2.636 5.887 5.887 5.887 0 0 20.382-1.623 23.973-2.356 2.383-.486 3.77-1.396 4.717-2.96M32.025 38.49s-.477-5.344-.773-9.096c-.297-3.753-2.34-5.225-5.225-5.225-.612 0-1.2.103-1.745.297M39.274 57.134c-1.925 0-3.483 1.56-3.483 3.482 0 1.926 1.56 3.484 3.484 3.484H67.77" fill="none" stroke="#6a6a76" stroke-linecap="round" stroke-miterlimit="10" stroke-width="2"/><circle cx="41.646" cy="69.733" fill="none" r="2.098" stroke="#6a6a76" stroke-linecap="round" stroke-miterlimit="10" stroke-width="2"/><circle cx="63.315" cy="69.733" fill="none" r="2.099" stroke="#6a6a76" stroke-linecap="round" stroke-miterlimit="10" stroke-width="2"/><g fill="none" stroke="#6a6a76" stroke-linecap="round" stroke-miterlimit="10" stroke-width="2"><path d="M50.43 40.66v8.464M42.18 40.66v8.464M58.68 40.66v8.464"/></g></svg>
