<svg viewBox="0 0 512 512" xmlns="http://www.w3.org/2000/svg"><g fill="#6a6a76"><path d="M501.5 416.5h-85.2c-30.7 0-60.7-8.5-86.9-24.5-26.2-16-47.4-38.9-61.3-66.2l-108.8-213H10.5c-5.8 0-10.5-4.7-10.5-10.5s4.7-10.5 10.5-10.5h155.2c4 0 7.6 2.2 9.4 5.7l111.8 218.8c25 48.9 74.5 79.2 129.4 79.2h58.8l-51.5-49.1c-4.2-4-4.4-10.7-.4-14.9 4-4.2 10.7-4.4 14.9-.4l70.5 67.2c3.1 3 4.1 7.6 2.5 11.6-1.5 4-5.3 6.6-9.6 6.6z"/><path d="M436.6 488c-2.5 0-5.1-.9-7.1-2.7-4.3-3.9-4.6-10.6-.7-14.9l64.9-71.5c3.9-4.3 10.6-4.6 14.9-.7 4.3 3.9 4.6 10.6.7 14.9l-64.9 71.5c-2.1 2.3-5 3.4-7.8 3.4zM165.7 420.3H10.5c-5.8 0-10.5-4.7-10.5-10.5s4.7-10.5 10.5-10.5h148.7L268 186.2c14-27.3 35.2-50.2 61.3-66.2 26.2-16 56.2-24.5 86.9-24.5h85.2c4.3 0 8.2 2.6 9.8 6.6 1.6 4 .6 8.6-2.5 11.6l-70.5 67.2c-4.2 4-10.9 3.9-14.9-.4-4-4.2-3.9-10.9.4-14.9l51.5-49.1h-58.8c-54.9 0-104.5 30.4-129.4 79.2L175.1 414.6c-1.8 3.5-5.4 5.7-9.4 5.7z"/><path d="M501.5 116.5c-2.9 0-5.7-1.2-7.8-3.5l-64.9-71.5c-3.9-4.3-3.6-11 .7-14.9 4.3-3.9 11-3.6 14.9.7l64.9 71.5c3.9 4.3 3.6 11-.7 14.9-2.1 1.9-4.6 2.8-7.1 2.8z"/></g></svg>
